<mxfile host="app.diagrams.net" agent="Mozilla/5.0 (Windows NT 10.0; Win64; x64) AppleWebKit/537.36 (KHTML, like Gecko) Chrome/128.0.0.0 Safari/537.36" version="24.7.10">
  <diagram name="Trang-1" id="M29siwfYK7ShaSCU1WOV">
    <mxGraphModel dx="1877" dy="569" grid="1" gridSize="10" guides="1" tooltips="1" connect="1" arrows="1" fold="1" page="1" pageScale="1" pageWidth="827" pageHeight="1169" math="0" shadow="0">
      <root>
        <mxCell id="0" />
        <mxCell id="1" parent="0" />
        <mxCell id="uaU2Z7Foe7vTZ_Ux_tnz-1" value="" style="edgeStyle=orthogonalEdgeStyle;rounded=0;orthogonalLoop=1;jettySize=auto;html=1;" edge="1" parent="1" target="uaU2Z7Foe7vTZ_Ux_tnz-6">
          <mxGeometry relative="1" as="geometry">
            <mxPoint x="-160" y="70" as="sourcePoint" />
          </mxGeometry>
        </mxCell>
        <mxCell id="uaU2Z7Foe7vTZ_Ux_tnz-2" value="if c to f" style="edgeLabel;html=1;align=center;verticalAlign=middle;resizable=0;points=[];" vertex="1" connectable="0" parent="uaU2Z7Foe7vTZ_Ux_tnz-1">
          <mxGeometry x="-0.3619" y="3" relative="1" as="geometry">
            <mxPoint as="offset" />
          </mxGeometry>
        </mxCell>
        <mxCell id="uaU2Z7Foe7vTZ_Ux_tnz-3" value="" style="edgeStyle=orthogonalEdgeStyle;rounded=0;orthogonalLoop=1;jettySize=auto;html=1;" edge="1" parent="1" target="uaU2Z7Foe7vTZ_Ux_tnz-8">
          <mxGeometry relative="1" as="geometry">
            <mxPoint x="-40" y="70" as="sourcePoint" />
            <Array as="points">
              <mxPoint y="70" />
            </Array>
          </mxGeometry>
        </mxCell>
        <mxCell id="uaU2Z7Foe7vTZ_Ux_tnz-4" value="else" style="edgeLabel;html=1;align=center;verticalAlign=middle;resizable=0;points=[];" vertex="1" connectable="0" parent="uaU2Z7Foe7vTZ_Ux_tnz-3">
          <mxGeometry x="-0.3169" y="2" relative="1" as="geometry">
            <mxPoint as="offset" />
          </mxGeometry>
        </mxCell>
        <mxCell id="uaU2Z7Foe7vTZ_Ux_tnz-5" value="" style="edgeStyle=orthogonalEdgeStyle;rounded=0;orthogonalLoop=1;jettySize=auto;html=1;" edge="1" parent="1" source="uaU2Z7Foe7vTZ_Ux_tnz-6" target="uaU2Z7Foe7vTZ_Ux_tnz-9">
          <mxGeometry relative="1" as="geometry" />
        </mxCell>
        <mxCell id="uaU2Z7Foe7vTZ_Ux_tnz-6" value="f=c*9/5+32" style="rounded=0;whiteSpace=wrap;html=1;" vertex="1" parent="1">
          <mxGeometry x="-340" y="160" width="120" height="60" as="geometry" />
        </mxCell>
        <mxCell id="uaU2Z7Foe7vTZ_Ux_tnz-7" value="" style="edgeStyle=orthogonalEdgeStyle;rounded=0;orthogonalLoop=1;jettySize=auto;html=1;" edge="1" parent="1" source="uaU2Z7Foe7vTZ_Ux_tnz-8" target="uaU2Z7Foe7vTZ_Ux_tnz-10">
          <mxGeometry relative="1" as="geometry" />
        </mxCell>
        <mxCell id="uaU2Z7Foe7vTZ_Ux_tnz-8" value="c=(f-32)*5/9" style="rounded=1;whiteSpace=wrap;html=1;" vertex="1" parent="1">
          <mxGeometry x="-60" y="160" width="120" height="60" as="geometry" />
        </mxCell>
        <mxCell id="uaU2Z7Foe7vTZ_Ux_tnz-9" value="print f" style="rounded=0;whiteSpace=wrap;html=1;" vertex="1" parent="1">
          <mxGeometry x="-340" y="300" width="120" height="60" as="geometry" />
        </mxCell>
        <mxCell id="uaU2Z7Foe7vTZ_Ux_tnz-10" value="print c" style="rounded=1;whiteSpace=wrap;html=1;" vertex="1" parent="1">
          <mxGeometry x="-60" y="300" width="120" height="60" as="geometry" />
        </mxCell>
        <mxCell id="uaU2Z7Foe7vTZ_Ux_tnz-11" value="" style="ellipse;whiteSpace=wrap;html=1;" vertex="1" parent="1">
          <mxGeometry x="-60" y="260" width="120" height="80" as="geometry" />
        </mxCell>
        <mxCell id="uaU2Z7Foe7vTZ_Ux_tnz-12" value="" style="ellipse;whiteSpace=wrap;html=1;" vertex="1" parent="1">
          <mxGeometry x="-60" y="260" width="120" height="80" as="geometry" />
        </mxCell>
        <mxCell id="uaU2Z7Foe7vTZ_Ux_tnz-13" value="" style="ellipse;whiteSpace=wrap;html=1;" vertex="1" parent="1">
          <mxGeometry x="-60" y="260" width="120" height="80" as="geometry" />
        </mxCell>
        <mxCell id="uaU2Z7Foe7vTZ_Ux_tnz-14" value="" style="ellipse;whiteSpace=wrap;html=1;" vertex="1" parent="1">
          <mxGeometry x="-60" y="260" width="120" height="80" as="geometry" />
        </mxCell>
        <mxCell id="uaU2Z7Foe7vTZ_Ux_tnz-15" value="" style="ellipse;whiteSpace=wrap;html=1;" vertex="1" parent="1">
          <mxGeometry x="-60" y="260" width="120" height="80" as="geometry" />
        </mxCell>
        <mxCell id="uaU2Z7Foe7vTZ_Ux_tnz-16" value="start" style="ellipse;whiteSpace=wrap;html=1;" vertex="1" parent="1">
          <mxGeometry x="-170" y="30" width="130" height="80" as="geometry" />
        </mxCell>
      </root>
    </mxGraphModel>
  </diagram>
</mxfile>
